<?xml version="1.0" encoding="UTF-8"?>
<svg width="40px" height="40px" viewBox="0 0 40 40" version="1.1" xmlns="http://www.w3.org/2000/svg" xmlns:xlink="http://www.w3.org/1999/xlink">
    <!-- Generator: Sketch 46.2 (44496) - http://www.bohemiancoding.com/sketch -->
    <title>Group 19 Copy</title>
    <desc>Created with Sketch.</desc>
    <defs>
        <rect id="path-1" x="0" y="0" width="40" height="40" rx="20"></rect>
        <path d="M3,0 L20,0 L20,-4.4408921e-16 C21.6568542,-7.48451865e-16 23,1.34314575 23,3 L23,6 L0,6 L0,3 L-4.4408921e-16,3 C-6.46995335e-16,1.34314575 1.34314575,7.48451865e-16 3,4.4408921e-16 Z" id="path-3"></path>
    </defs>
    <g id="Page-1" stroke="none" stroke-width="1" fill="none" fill-rule="evenodd">
        <g id="酒店频道_细节状态补充" transform="translate(-250.000000, -141.000000)">
            <g id="新鲜事" transform="translate(230.000000, 37.000000)">
                <g id="Group-19-Copy" transform="translate(20.000000, 104.000000)">
                    <mask id="mask-2" fill="white">
                        <use xlink:href="#path-1"></use>
                    </mask>
                    <use id="Rectangle-8" fill="#FFFFFF" xlink:href="#path-1"></use>
                    <g id="Group-16" mask="url(#mask-2)">
                        <g transform="translate(9.000000, 10.000000)">
                            <rect id="Rectangle-26" stroke="#FF6D62" stroke-width="2" fill="none" x="1" y="1" width="21" height="19" rx="3"></rect>
                            <g id="Rectangle-26" stroke="none" fill="none">
                                <use fill="#FF6D62" fill-rule="evenodd" xlink:href="#path-3"></use>
                                <path stroke="#FF6D62" stroke-width="1" d="M0.5,5.5 L22.5,5.5 L22.5,3 C22.5,1.61928813 21.3807119,0.5 20,0.5 L3,0.5 C1.61928813,0.5 0.5,1.61928813 0.5,3 L0.5,5.5 Z"></path>
                            </g>
                            <rect id="Rectangle-27" stroke="none" fill="#FFFFFF" fill-rule="evenodd" x="5" y="2" width="2" height="2"></rect>
                            <rect id="Rectangle-27-Copy" stroke="none" fill="#FFFFFF" fill-rule="evenodd" x="16" y="2" width="2" height="2"></rect>
                            <polyline id="Path-2" stroke="#FF6D62" stroke-width="2" fill="none" stroke-linecap="round" stroke-linejoin="round" points="7.48059082 12.7005615 10.3679623 15.587933 16.5596979 9.39619739"></polyline>
                        </g>
                    </g>
                </g>
            </g>
        </g>
    </g>
</svg>